<?xml version="1.0" encoding="UTF-8" standalone="no"?>
<!DOCTYPE svg PUBLIC "-//W3C//DTD SVG 1.1//EN" "http://www.w3.org/Graphics/SVG/1.1/DTD/svg11.dtd">
<svg width="100%" height="100%" viewBox="0 0 1694 2003" version="1.1" xmlns="http://www.w3.org/2000/svg" xmlns:xlink="http://www.w3.org/1999/xlink" xml:space="preserve" xmlns:serif="http://www.serif.com/" style="fill-rule:evenodd;clip-rule:evenodd;stroke-linejoin:round;stroke-miterlimit:2;">
    <g id="LocalHeroes" transform="matrix(1,0,0,1,-154,1)">
        <g transform="matrix(1,0,0,1,1390.66,714.267)">
            <path d="M0,576.58L-0.461,577.257L0.26,577.357L0,576.58ZM-64.755,849.871C-65.672,851.489 -66.59,853.108 -67.507,854.727C-62.037,857.924 -56.567,861.119 -51.099,864.315C-50.916,852.104 -56.123,848.385 -64.755,849.871M-712.875,-2.314C-711.258,-1.575 -709.641,-0.837 -708.023,-0.099C-705.222,-3.905 -700.408,-7.527 -700.04,-11.555C-699.276,-19.9 -701.773,-27.927 -712.875,-32.677L-712.875,-2.314ZM-1042.12,170.23C-1044.67,160.403 -1046.8,152.236 -1048.92,144.069C-1050.93,143.21 -1052.94,142.351 -1054.95,141.493C-1057.93,144.427 -1060.9,147.361 -1063.88,150.295C-1062.92,151.482 -1061.96,152.669 -1061,153.856C-1059.29,158.879 -1057.58,163.902 -1055.76,169.274C-1051.69,169.559 -1048.09,169.811 -1042.12,170.23M-1019.84,77.686C-1029.7,69.038 -1036.94,72.925 -1043.52,79.695C-1049.11,85.443 -1050.84,91.719 -1045.89,98.496C-1036.68,91.144 -1028.7,84.77 -1019.84,77.686M-753.988,-48.51C-752.4,-55.297 -751.224,-60.325 -749.875,-66.092C-755.053,-67.55 -758.861,-68.622 -762.257,-69.579C-767.891,-63.592 -772.709,-58.472 -778.962,-51.828C-770.068,-50.647 -762.827,-49.684 -753.988,-48.51M-763.257,32.283C-764.696,33.67 -766.134,35.058 -767.572,36.445C-763.417,40.228 -759.263,44.011 -754.875,48.007C-742.215,37.21 -730.134,31.913 -731.813,16.35C-743.092,22.064 -753.175,27.173 -763.257,32.283M-86.632,821.684C-67.425,811.848 -53.767,801.855 -51.668,781.092L-62.422,781.092C-70.403,794.474 -77.584,806.513 -86.632,821.684M-175.77,976.032C-181.679,981.878 -187.838,987.97 -195.544,995.593L-146.878,995.593C-157.321,988.522 -166.117,982.567 -175.77,976.032M-922.215,790.106C-916.719,767.048 -911.493,745.126 -906.268,723.203C-907.486,722.828 -908.705,722.452 -909.924,722.077C-916.831,735.755 -924.422,749.141 -930.417,763.206C-934.839,773.582 -933.019,783.486 -922.215,790.106M-1013.39,173.92C-998.755,186.363 -985.115,188.615 -971.393,181.243C-983.862,171.572 -996.207,161.998 -1010.24,151.117C-1011.55,160.612 -1012.51,167.556 -1013.39,173.92M-25.212,782.342C-32.161,802.197 -37.72,818.081 -44.245,836.727C-16.414,825.837 -20.143,802.329 -12.786,780.503C-19.589,781.51 -23.629,782.107 -25.212,782.342M-80.982,1006.34C-66.935,1013.16 -47.458,1008.64 -39.019,996.316C-32.912,987.402 -33.701,981.32 -39.791,975.229C-53.84,985.84 -67.513,996.167 -80.982,1006.34M-928.514,-91.197C-934.592,-98.826 -938.209,-105.297 -943.553,-109.646C-952.933,-117.276 -962.875,-116.475 -967.93,-109.195C-972.974,-101.928 -969.876,-94.551 -960.332,-88.298C-950.264,-89.215 -941.728,-89.993 -928.514,-91.197M-834.413,31.419C-818.09,44.818 -802.674,44.025 -794.271,30.31C-806.188,23.337 -818.056,16.393 -832.654,7.851C-833.413,18.027 -833.946,25.171 -834.413,31.419M-105.275,819.442C-106.164,809.571 -101.172,798.98 -114.562,791.976C-121.204,800.639 -127.8,809.242 -137.236,821.55C-122.556,825.945 -111.813,829.162 -101.069,832.379C-100.497,831.116 -99.924,829.853 -99.352,828.59C-101.273,825.623 -103.195,822.655 -105.275,819.442M-213.571,986.581C-211.815,963.935 -231.416,967.347 -253.873,978.164C-255.608,982.989 -257.511,988.279 -259.842,994.765C-242.446,997.927 -227.237,998.156 -213.571,986.581M-1034.29,257.183C-1033.47,257.223 -1032.65,257.263 -1031.83,257.302C-1023.33,236.058 -1014.83,214.814 -1006.02,192.801L-1038.02,192.801C-1036.75,214.769 -1035.52,235.976 -1034.29,257.183M-323.348,929.168C-330.712,922.596 -336.938,924.32 -342.413,930.448C-351.354,940.455 -352.048,962.151 -343.619,974.141C-335.896,972.02 -327.934,969.835 -319.651,967.561C-320.909,954.495 -322.1,942.129 -323.348,929.168M-301.93,1008.33C-281.976,1028.27 -255.417,1035.08 -235.739,1026.03C-235.283,1022.04 -234.82,1017.98 -234.545,1015.57C-256.54,1010 -277.768,1004.62 -299.846,999.024C-300.309,1001.09 -301.091,1004.59 -301.93,1008.33M-950.004,166.096C-943.839,149.128 -934.787,134.16 -943.931,117.913C-946.869,112.694 -955.194,110.507 -962.673,105.946C-964.744,117.414 -966.12,125.18 -967.553,132.934C-969.051,141.042 -970.604,149.141 -972.147,157.318C-964.872,160.202 -958.411,162.764 -950.004,166.096M-768.976,10.422C-795.308,-5.014 -802.587,-30.273 -809.434,-56.282C-826.014,-38.939 -820.435,-16.282 -810.121,-1.304C-800.473,12.708 -786.544,17.009 -768.976,10.422M-1007.44,-12.161C-1009.9,3.383 -1010.26,18.99 -996.588,30.019C-991.75,33.922 -983.83,34.003 -977.767,35.703C-978.972,15.773 -979.983,-0.965 -981.091,-19.286C-988.249,-17.35 -997.034,-14.974 -1007.44,-12.161M-964.108,93.42C-974.754,80.685 -988.393,85.633 -995.902,83.847C-1026.55,92.46 -1037.02,113.635 -1041.82,139.744C-1039.88,140.63 -1037.42,141.761 -1034.39,143.148C-1019.84,114.266 -994.778,100.601 -964.108,93.42M-112.258,850.028C-112.8,851.188 -113.341,852.349 -113.883,853.509C-93.059,878.076 -72.233,902.642 -50.539,928.235C-44.882,904.733 -53.339,887.347 -63.615,875.394C-82.832,865.373 -97.545,857.7 -112.258,850.028M-39.861,884.284C-38.447,905.712 -37.138,925.544 -35.775,946.189C-18.889,942.56 -12.648,927.877 -5.128,914.282C-9.98,900.864 -11.427,886.085 -28.817,881.76C-32.164,882.525 -36.156,883.437 -39.861,884.284M-147.96,870.676C-157.426,892.744 -165.58,911.756 -173.135,929.371C-167.5,936.085 -163.488,940.866 -158.392,946.938L-158.392,932.473C-146.172,918.391 -134.499,904.938 -120.639,888.965C-128.687,883.578 -137.771,877.496 -147.96,870.676M-199.05,897.552C-211.942,902.829 -222.871,907.302 -233.638,911.708C-220.44,930.273 -207.997,947.776 -195.171,965.818C-192.801,964.853 -189.162,963.372 -184.803,961.597C-188.825,950.479 -192.488,940.354 -195.92,930.868C-191.244,918.45 -188.07,907.02 -199.05,897.552M-977.969,58.924C-959.155,70.461 -928.678,63.346 -914.873,47.069C-904.76,35.147 -906.944,22.184 -918.267,16.191C-938.3,30.53 -957.614,44.355 -977.969,58.924M-847.49,-60.605C-863.199,-80.308 -876.781,-97.343 -890.362,-114.378C-892.259,-114.051 -894.155,-113.725 -896.052,-113.398C-899.575,-103.823 -903.098,-94.248 -906.803,-84.178C-879.306,-72.702 -863.03,-54.031 -855.642,-27.381C-854.512,-27.624 -853.383,-27.867 -852.253,-28.11C-850.601,-39.386 -848.948,-50.661 -847.49,-60.605M-603.709,467.655C-581.478,463.886 -548.803,405.92 -553.485,378.226C-576.244,405.059 -609.22,425.317 -603.709,467.655M-79.705,947.085C-102.655,949.452 -121.594,951.406 -141.572,953.467C-141.889,958.182 -142.212,962.988 -142.489,967.114C-117.552,984.668 -87.86,987.59 -68.587,973.895C-72.492,964.477 -76.543,954.711 -79.705,947.085M77.261,197.669C64.112,161.846 29.035,135.589 0.768,139.808L0.768,163.675C5.407,165.083 9.621,165.643 13.104,167.543C28.079,175.714 42.65,184.644 57.782,192.5C63.083,195.252 69.57,195.717 77.261,197.669M-55.478,762.491C-60.501,746.498 -92.972,731.476 -111.691,738.074C-113.192,741.602 -114.628,744.977 -116.157,748.57C-121.415,749.708 -126.221,750.747 -131.794,751.953C-135.527,763.517 -139.292,775.181 -143.184,787.236C-113.176,778.77 -84.728,770.744 -55.478,762.491M-862.119,629.655C-907.729,626.209 -963.644,659.768 -966.012,691.396C-949.713,688.019 -933.666,684.693 -921.274,682.125C-900.631,663.815 -881.986,647.277 -862.119,629.655M-287.927,984.776C-286.847,984.546 -285.767,984.316 -284.687,984.086C-278.8,945.387 -268.054,908.779 -238.849,879.843C-262.016,875.41 -286.44,886.082 -296.274,907.669C-309.823,937.408 -312.497,954.305 -293.612,969.829C-291.517,975.339 -289.722,980.058 -287.927,984.776M-57.523,405.093C-38.252,417.146 -20.521,429.63 3.183,425.703C-4.168,394.078 -30.975,343.639 -52.369,339.54C-54.068,361.156 -55.766,382.738 -57.523,405.093M-906.689,891.428C-907.482,920.433 -864.25,1009.52 -844.797,1019.94C-834.018,976.807 -863.167,915.439 -906.689,891.428M-652.489,-101.935C-652.96,-103.527 -653.431,-105.12 -653.901,-106.712C-719.617,-102.366 -785.333,-98.02 -852.74,-93.561C-844.34,-80.456 -837.791,-70.237 -830.832,-59.379C-823.359,-69.475 -815.316,-80.341 -807.452,-90.966C-780.711,-82.748 -750.84,-95.276 -729.346,-70.113C-716.866,-76.158 -704.375,-82.91 -691.33,-88.325C-678.68,-93.576 -665.459,-97.454 -652.489,-101.935M-878.697,24.099C-864.432,-5.672 -869.84,-34.067 -892.167,-52.655C-913.38,-70.317 -942.204,-71.51 -963.059,-56.148C-935.237,-29.683 -907.326,-3.134 -878.697,24.099M-44.387,258.776C-49.175,267.238 -53.393,274.694 -58.396,283.539C-57.874,290.634 -57.204,299.713 -56.6,307.916C-16.729,346.007 22.622,371.235 44.587,372.517C23.477,327.518 1.052,284.321 -44.387,258.776M-361.387,918.758C-362.479,918.27 -363.569,917.782 -364.661,917.294C-388.743,943.96 -415.005,967.125 -447.157,971.629C-462.628,984.006 -474.43,993.447 -487.595,1003.98C-483.961,1004.24 -482.021,1004.58 -480.102,1004.48C-430.675,1001.99 -381.243,999.558 -331.836,996.712C-327.665,996.472 -323.658,993.393 -319.575,991.634C-319.979,990.339 -320.383,989.044 -320.786,987.748C-325.488,988.143 -330.247,988.201 -334.882,988.989C-366.079,994.289 -370.754,989.743 -366.401,958.353C-364.574,945.177 -363.049,931.958 -361.387,918.758M-6.959,114.73C0.809,115.565 6.389,115.131 11.201,116.848C43.375,128.326 71.346,118.993 96.939,99.502C103.215,94.723 107.501,87.331 113.163,80.591C81.265,58.376 47.418,50.271 9.673,48.366C15.861,63.334 8.112,69.313 -2.711,73.797C-12.491,77.848 -22.084,82.35 -32.979,87.196C-22.562,98.22 -14.284,106.979 -6.959,114.73M9.295,271.305C43.152,269.254 56.311,305.533 87.826,312.099C86.674,304.797 87.016,298.195 84.558,292.892C73.654,269.366 63.749,245.079 50.016,223.249C36.747,202.159 19.477,183.256 -10.857,192.841C-15.278,186.896 -19.42,181.326 -25.038,173.769C-35.619,215.962 -13.893,243.186 9.295,271.305M201.39,519.737C198.052,515.116 196.461,512.186 194.21,509.909C163.269,478.615 132.229,447.418 101.228,416.184C87.48,402.333 68.785,399.517 51.31,394.319C45.719,392.656 39.216,394.059 32.545,394.059C37.084,427.703 50.659,454.676 76.816,474.6C112.972,502.14 155.825,511.037 201.39,519.737M103.088,28.775C103.537,27.512 103.985,26.249 104.434,24.986C101.53,21.499 99.058,17.505 95.651,14.609C74.074,-3.737 49.145,-14.907 21.218,-19.597C11.171,-21.285 -0.211,-20.141 -6.63,-31.5L-6.63,-44.763C0.223,-45.628 6.77,-47.256 13.277,-47.114C27.951,-46.795 42.599,-45.072 57.269,-44.903C72.803,-44.724 84.514,-51.612 90.813,-65.686C87.78,-69.859 85.142,-73.489 80.962,-79.239C44.194,-77.986 6.191,-76.691 -31.187,-75.417C-39.715,-63.705 -47.999,-52.327 -57.02,-39.938C-23.765,-31.811 5.045,-18.994 17.866,18.476C-5.152,13.329 -27.49,11.391 -48.201,23.41C-31.166,28.482 -15.205,33.235 0.757,37.988L0.027,35.149C6.795,33.63 13.521,31.04 20.338,30.778C47.906,29.721 75.502,29.38 103.088,28.775M106.227,173.53C110.688,191.283 120.429,207.391 133.102,217.757C168.046,246.342 208.458,264.607 254.704,266.045C275.682,266.698 296.054,263.4 316.054,252.831C290.191,236.273 265.618,220.488 240.954,204.845C238.938,203.566 236.322,203.215 233.965,202.499C222.062,198.885 209.486,196.682 198.396,191.373C180.995,183.041 164.153,175.23 145.417,183.314C133.057,175.826 122.851,164.169 106.227,173.53M43.38,-294.86C44.438,-293.829 45.496,-292.798 46.554,-291.767C65.564,-308.588 85.968,-324.095 103.321,-342.481C153.723,-395.878 177.617,-461.922 189.954,-532.898C190.609,-536.664 188.821,-540.855 187.984,-545.985C151.808,-516.905 49.746,-338.396 43.38,-294.86M346.732,-329.177C321.889,-317.266 298.606,-306.095 275.313,-294.946C271.167,-292.961 266.52,-291.694 262.88,-289.034C220.985,-258.405 178.98,-227.914 137.64,-196.549C127.367,-188.755 119.371,-177.961 110.329,-168.545C111.416,-166.941 112.503,-165.337 113.59,-163.732C124.117,-167.013 134.881,-169.687 145.127,-173.688C175.488,-185.543 205.184,-199.274 235.985,-209.795C289.719,-228.149 319.654,-269.952 345.434,-316.369C347.301,-319.731 346.348,-324.659 346.732,-329.177M284.516,353.105C268.274,339.255 254.978,326.607 240.369,315.719C205.529,289.752 166.136,271.93 126.224,255.561C106.281,247.382 92.12,233.649 79.658,216.242C74.337,214.242 68.544,212.064 63.76,210.266C78.941,243.394 93.842,275.91 110.441,312.135C160.514,339.369 215.206,367.193 284.516,353.105M94.292,-42.999C94.749,-41.924 95.206,-40.85 95.662,-39.775C101.865,-39.775 108.07,-39.67 114.271,-39.793C146.147,-40.425 178.281,-44.015 209.848,-41.205C283.949,-34.607 349.689,-55.675 411.069,-94.847C413.633,-96.483 415.81,-98.726 419.702,-101.963C413.376,-102.611 409.309,-103.422 405.25,-103.382C367.937,-103.014 330.614,-102.895 293.315,-101.917C254.294,-100.893 215.512,-98.293 178.492,-83.604C164.56,-78.076 149.847,-73.901 135.107,-71.172C116.585,-67.743 106.349,-54.455 94.292,-42.999M82.593,-99.864C102.561,-99.39 120.846,-95.878 137.852,-99.105C200.059,-110.907 260.847,-127.001 314.813,-162.909C343.634,-182.086 374.719,-197.854 404.694,-215.311C407.271,-216.812 409.193,-219.439 411.419,-221.543C307.288,-212.083 208.402,-186.547 114.522,-140.478C119.272,-115.962 89.82,-119.831 82.593,-99.864M-80.822,-367.567C-75.969,-369.287 -72.741,-370.11 -69.812,-371.545C-65.679,-373.567 -61.523,-375.703 -57.799,-378.378C-27.908,-399.838 -5.328,-429.654 6.086,-462.391C25.563,-518.253 36.832,-576.997 51.073,-634.649C53.466,-644.336 53.459,-654.617 54.562,-664.623C53.397,-664.951 52.233,-665.28 51.069,-665.608C44.655,-655.115 38.664,-644.334 31.749,-634.182C7.202,-598.148 -18.798,-563.049 -42.119,-526.247C-72.323,-478.581 -84.74,-425.821 -80.822,-367.567M110.925,109.694C118.167,115.678 123.223,120.594 128.988,124.447C137.872,130.385 146.688,137.068 156.533,140.783C172.931,146.968 189.905,152.045 207.03,155.782C230.558,160.917 253.188,171.104 278.166,168.883C285.097,168.267 292.242,168.951 299.186,169.839C310.759,171.32 322.198,174.497 333.785,175.062C352.242,175.961 370.774,175.302 391.943,175.302C386.165,167.903 382.496,161.712 377.44,157.013C362.997,143.587 348.018,130.736 333.197,117.716C316.788,103.3 297.76,96.513 275.79,95.593C253.231,94.648 230.793,91.09 208.239,89.676C191.209,88.608 174.065,88.593 157.003,89.12C147.091,89.426 137.24,91.725 126.052,93.313C121.685,98.042 116.399,103.766 110.925,109.694M-37.89,449.577C-37.89,461.61 -39.958,473.132 -37.522,483.604C-28.207,523.648 -2.933,553.31 29.971,575.816C61.469,597.361 94.823,616.191 126.885,635.921C133.376,607.817 125.426,564.121 107.834,535.279C75.256,481.869 25.844,456.57 -37.89,449.577M373.333,42.423C359.902,38.539 348.084,36.697 337.705,31.803C313.468,20.374 290.077,7.163 266.033,-4.695C252.698,-11.272 238.739,-16.581 225.061,-22.461L224.319,-17.907C217.7,-16.941 211.112,-15.53 204.459,-15.084C170.727,-12.817 136.977,-10.801 100.219,-8.509C114.438,9.695 126.192,24.919 138.229,39.916C139.648,41.684 142.573,42.32 144.881,43.286C160.723,49.917 176.513,56.677 192.457,63.053C218.378,73.42 245.32,83.165 273.176,78.021C302.22,72.657 330.448,62.676 358.795,53.943C363.8,52.401 367.639,47.077 373.333,42.423M58.105,-227.424C177.676,-238.27 266.05,-324.529 293.335,-440.141C203.483,-380.784 110.168,-328.566 58.105,-227.424M-144.446,843.192C-148.262,840.246 -149.707,838.757 -151.453,837.844C-163.404,831.592 -167.982,822.008 -165.602,808.678C-162.437,790.963 -160.278,773.05 -156.579,755.456C-152.693,736.978 -140.559,726.712 -121.678,724.479C-114.185,723.593 -106.743,721.502 -99.268,721.451C-91.305,721.396 -82.976,721.976 -75.45,724.331C-66.094,727.26 -57.396,732.293 -46.09,737.484C-47.192,722.768 -48.087,710.838 -48.902,699.957C-61.507,706.195 -73.767,712.262 -87,718.81C-90.537,710.595 -92.634,705.726 -94.595,701.171C-74.55,676.305 -72.333,640.411 -90.418,627.239C-97.993,665.906 -119.076,695.887 -149.058,719.956C-174.253,740.183 -200.5,759.158 -224.973,780.209C-245.72,798.055 -264.438,817.953 -266.643,847.996C-267.011,853.005 -272.702,857.623 -276.636,863.464C-306.732,845.968 -290.233,818.691 -295.212,795.544C-319.665,825.927 -329.798,861.464 -344.737,894.319C-334.176,898.865 -324.784,902.907 -314.747,907.227C-305.972,874.277 -280.165,866.8 -252.72,863.799C-225.163,860.785 -199.667,866.25 -183.24,893.76C-175.427,877.43 -168.97,863.934 -162.666,850.758C-157.091,848.443 -151.68,846.196 -144.446,843.192M-16.326,-311.06C-14.773,-310.062 -13.221,-309.063 -11.669,-308.064C4.05,-323.426 22.625,-336.808 34.92,-354.544C64.711,-397.514 92.406,-442.014 119.388,-486.836C146.311,-531.558 166.316,-579.413 176.526,-630.937C177.829,-637.511 178.396,-644.23 179.303,-650.882C178.069,-651.368 176.837,-651.854 175.604,-652.34C171.687,-648.898 166.432,-646.185 164.091,-641.884C155.028,-625.238 141.847,-612.93 127.076,-601.465C120.022,-595.99 115.54,-587.229 109.8,-580.031C97.542,-564.658 85.184,-549.365 72.952,-533.971C69.073,-529.09 64.994,-524.275 61.806,-518.951C32.74,-470.408 14.934,-417.191 -1.918,-363.639C-7.369,-346.317 -11.56,-328.598 -16.326,-311.06M-236.276,-175.072C-238.627,-175.437 -240.978,-175.803 -243.328,-176.169C-245.894,-169.425 -248.559,-162.718 -250.996,-155.93C-253.945,-147.72 -255.396,-138.657 -259.786,-131.338C-273.39,-108.657 -265.7,-73.216 -244.934,-56.682C-205.556,-25.329 -165.355,5.373 -129.01,40.029C-100.047,67.644 -76.306,100.736 -48.018,134.018C-42.845,137.129 -34.365,142.227 -23.797,148.581C-29.532,122.08 -47.386,108.425 -62.686,95.48C-65.246,84.746 -67.348,75.938 -70.241,63.809C-59.101,62.416 -48.747,61.123 -38.395,59.83C-38.133,58.88 -37.872,57.931 -37.61,56.982C-46.675,53.408 -55.627,49.504 -64.835,46.347C-74.985,42.867 -84.7,39.3 -87.951,23.491C-78.563,18.673 -68.9,12.31 -58.304,8.667C-47.49,4.951 -35.76,3.905 -20.989,1.018C-51.564,-23.196 -85.158,-5.872 -114.598,-12.82C-120.51,-31.705 -116.965,-37.19 -98.148,-39.159C-78.765,-41.188 -62.51,-54.094 -57.679,-71.742C-87.88,-77.244 -114.516,-66.369 -140.631,-53.942C-151.738,-57.265 -160.312,-62.135 -160.576,-74.904C-148.963,-89.779 -125.794,-93.09 -121.097,-114.958C-141.917,-116.699 -162.799,-101.534 -167.66,-83.016C-169.193,-77.177 -172.989,-71.933 -175.549,-66.816C-181.194,-68.587 -183.989,-69.437 -186.767,-70.338C-205.43,-76.399 -209.44,-89.252 -196.266,-104.18C-189.984,-111.297 -181.397,-116.337 -174.157,-122.664C-170.545,-125.821 -166.119,-129.235 -164.651,-133.437C-160.241,-146.066 -156.398,-158.996 -153.744,-172.093C-152.231,-179.558 -153.471,-187.581 -153.471,-197.886C-190.358,-177.806 -208.29,-148.744 -218,-109.998C-225.549,-113.227 -233.521,-114.492 -237.684,-119.157C-240.545,-122.364 -238.254,-130.295 -238.028,-136.105C-237.523,-149.097 -236.869,-162.083 -236.276,-175.072M-112.875,-384.172C-156.475,-331.546 -200.341,-279.051 -188.36,-199.926C-175.737,-209.753 -165.104,-218.031 -153.485,-227.075C-149.562,-222.166 -144.632,-218.209 -142.617,-213.101C-131.907,-185.954 -143.854,-159.618 -147.149,-131.176C-141.967,-131.669 -137.442,-131.369 -133.417,-132.644C-126.659,-134.784 -120.204,-137.891 -113.648,-140.655C-103.723,-144.841 -96.537,-142.425 -92.475,-131.807C-98.358,-122.005 -104.321,-112.074 -109.787,-102.969C-94.279,-102.969 -79.615,-103.849 -65.107,-102.722C-50.564,-101.592 -37.217,-114.361 -21.963,-107.045C-21.682,-100.904 -21.457,-96.025 -21.24,-91.289C12.045,-83.905 64.237,-101.254 72.02,-122.913C67.32,-123.515 62.832,-124.655 58.375,-124.543C49.165,-124.311 39.979,-123.135 30.768,-122.857C19.99,-122.533 13.434,-127.647 12.027,-139.066C33.329,-153.244 60.802,-160.005 72.562,-188.791C15.207,-178.525 -32.296,-150.241 -78.952,-121.816C-86.396,-129.477 -84.615,-134.87 -78.723,-139.283C-58.275,-154.596 -38.52,-171.056 -16.927,-184.564C12.869,-203.205 29.32,-231.557 46.899,-262.447C41.452,-261.29 37.875,-261.317 35.132,-259.819C17.199,-250.03 -0.716,-240.189 -18.314,-229.816C-33.663,-220.769 -48.587,-211.001 -64.413,-201.104C-68.688,-206.955 -71.271,-210.487 -77.023,-218.358C-65.235,-227.242 -53.621,-235.995 -42.006,-244.748C-43.177,-245.908 -44.347,-247.067 -45.518,-248.227C-74.763,-233.214 -89.872,-202.547 -116.431,-181.964C-119.922,-186.697 -122.9,-190.734 -124.489,-192.888C-104.793,-220.759 -85.212,-245.997 -68.396,-272.958C-51.631,-299.835 -41.793,-329.761 -39.457,-361.985C-81.479,-328.819 -121.819,-294.713 -138.394,-240.14C-150.176,-238.065 -159.231,-248.124 -154.272,-261.505C-150.544,-271.564 -144.574,-281.025 -138.369,-289.889C-118.505,-318.262 -117.189,-351.462 -112.875,-384.172M-895.808,338.244C-884.198,335.198 -876.099,333.094 -868.01,330.948C-814.031,316.634 -763.083,296.809 -720.236,258.869C-702.319,243.004 -680.563,231.474 -661.167,218.388C-659.937,201.336 -658.574,182.423 -656.924,159.542C-668.235,132.546 -664.228,115.075 -637.125,94.793C-622.417,83.786 -606.113,74.91 -590.193,64.861C-588.6,58.287 -586.864,51.127 -585.249,44.463C-561.593,42.11 -552.739,50.643 -546.573,82.434C-525.986,81.005 -505.022,79.55 -482.755,78.005C-482.168,86.342 -481.682,93.259 -481.244,99.475C-498.186,111.847 -524.756,110.979 -529.123,140.63C-520.913,140.63 -514.752,141.488 -508.923,140.46C-494.647,137.944 -486.684,127.307 -481.002,115.329C-464.217,79.94 -433.661,59.778 -400.703,40.83C-397.574,45.541 -394.673,49.909 -391.26,55.047C-404.972,65.26 -417.7,74.741 -430.496,84.272C-431.338,94.174 -432.138,103.582 -433.196,116.018C-427.54,111.244 -424.245,108.259 -420.742,105.543C-409.16,96.565 -398.016,86.884 -385.726,78.997C-374.292,71.66 -361.548,69.996 -347.671,78.652C-350.372,86.922 -353.044,95.101 -356.804,106.612C-348.575,104.066 -343.097,103.414 -338.759,100.84C-323.989,92.078 -319.57,74.204 -327.342,57.944C-331.688,48.853 -335.804,39.651 -340.022,30.499C-338.929,29.022 -337.835,27.546 -336.74,26.069C-325.642,28.529 -313.355,28.766 -303.696,33.923C-285.054,43.876 -269.089,57.549 -267.777,81.913C-220.919,68.857 -176.219,60.311 -137.628,99.287C-146.545,113.442 -157.113,108.273 -167.241,106.077C-178.741,112.973 -195.373,112.491 -200.931,130.371C-147.97,146.866 -101.64,171.634 -73.015,221.411C-72.974,213.055 -73.755,205.581 -74.733,198.133C-80.999,150.474 -98.484,108.08 -129.334,70.444C-180.08,8.533 -246.273,-30.356 -319.999,-55.619C-399.63,-82.904 -482.211,-94.613 -566.719,-82.462C-609.896,-76.254 -650.365,-62.238 -689.397,-39.247C-684.625,-25.377 -679.934,-11.747 -674.541,3.927C-683.037,6.962 -690.614,9.668 -699.338,12.784C-714.784,37.435 -736.296,57.21 -763.679,72.322C-768.708,64.193 -772.597,57.907 -775.576,53.092C-796.532,43.079 -806.119,66.753 -826.833,65.887C-836.165,55.929 -847.311,44.036 -860.77,29.675C-866.741,49.368 -876.409,61.925 -892.143,71.032C-907.555,79.954 -922.182,88.736 -942.097,86.831C-939.327,92.589 -937.727,96.895 -935.342,100.711C-920.958,123.723 -921.383,146.166 -935.809,169.29C-941.196,177.926 -943.623,188.408 -946.217,195.029C-960.356,212.627 -972.998,228.01 -985.252,243.696C-1003.34,266.846 -1008.74,295.294 -1017.2,322.37C-1029.53,361.83 -1038.64,402.194 -1034.65,443.684C-1030.32,488.691 -1024.83,533.733 -1016.63,578.168C-1011.09,608.252 -1000,637.314 -991.392,666.834C-988.971,667.838 -986.55,668.841 -984.128,669.845C-980.177,663.969 -976.015,658.222 -972.311,652.193C-958.464,629.658 -937.139,617.704 -912.596,611.228C-890.331,605.355 -867.53,601.525 -845.218,595.808C-829.836,591.866 -814.886,586.244 -799.743,581.373C-800.011,579.899 -800.279,578.425 -800.547,576.951C-807.948,576.575 -815.36,576.352 -822.745,575.779C-830.273,575.194 -837.775,574.276 -845.287,573.483C-868.484,571.033 -884.527,557.626 -875.121,529.171C-872.275,520.559 -873.511,509.298 -876.389,500.384C-881.381,484.918 -888.81,470.192 -895.772,455.419C-903.446,439.138 -907.547,422.609 -904.946,404.34C-902.979,390.528 -903.446,376.383 -901.781,362.512C-900.771,354.098 -897.764,345.924 -895.808,338.244M-243.591,766.14C-226.229,753.642 -209.511,740.096 -191.313,728.965C-175.609,719.359 -161.565,708.41 -151.075,693.504C-130.411,664.143 -101.843,638.503 -104.702,595.933C-100.066,595.933 -95.32,594.638 -91.759,596.143C-69.011,605.762 -68.01,629.871 -58.314,648.346C-46.647,635.646 -41.79,635.12 -26.838,644.739C-23.66,646.783 -20.657,649.111 -17.406,651.026C-14.256,652.882 -10.891,654.373 -4.753,657.472C-7.428,653.678 -7.779,652.841 -8.402,652.344C-69.213,603.867 -90.131,539.151 -85.551,463.846C-82.475,413.262 -75.928,362.49 -77.954,312.086C-81.191,231.556 -137.058,163.605 -223.263,158.002C-235.661,145.54 -236.937,134.712 -226.892,118.631C-220.879,109.006 -213.872,100 -207.312,90.717L-209.506,87.118C-222.342,90.278 -235.318,92.966 -247.974,96.731C-261.057,100.622 -273.827,105.561 -286.734,110.042C-334.709,139.167 -367.729,141.037 -399.957,113.889C-416.624,125.527 -431.131,142.66 -456.314,138.749C-458.287,135.568 -460.646,131.762 -463.696,126.844C-467.843,133.108 -470.02,136.614 -472.409,139.968C-482.077,153.539 -493.429,165.114 -509.768,170.505C-535.067,178.853 -553.652,165.73 -554.004,139.31C-554.08,133.635 -554.015,127.958 -554.015,121.835C-592.122,136.202 -597.801,135.768 -605.091,118.835C-600.216,111.778 -595.44,104.866 -590.666,97.954C-591.678,96.823 -592.691,95.692 -593.705,94.561C-604.592,100.289 -616.352,104.826 -626.172,112.012C-643.026,124.346 -642.882,142.601 -627.711,157.15C-620.273,164.284 -613.454,172.065 -604.808,181.185C-590.423,183.8 -587.542,188.323 -595.242,203.026L-627.229,203.026C-632.708,199.372 -636.625,196.761 -641.82,193.296C-644.719,211.771 -624.761,215.107 -622.56,232.026C-629.373,233.889 -636.439,235.807 -643.498,237.753C-653.764,240.585 -665.41,241.252 -674.02,246.706C-696.639,261.034 -717.426,278.239 -739.926,292.775C-756.642,303.574 -774.273,313.493 -792.619,321.098C-816.459,330.979 -841.412,338.178 -865.886,346.53C-866.259,348.082 -866.632,349.633 -867.005,351.184C-859.88,355.187 -852.754,359.19 -846.314,362.809C-830.765,346.173 -823.98,346.515 -812.341,364.685C-819.489,371.034 -826.496,378.519 -834.739,384.215C-842.596,389.643 -851.939,392.862 -860.281,397.657C-877.872,407.768 -883.52,420.473 -879.695,443.673C-854.216,445.887 -827.961,448.167 -799.426,450.645C-786.299,463.409 -759.852,459.046 -749.249,481.581C-751.904,484.01 -753.984,485.912 -754.78,486.641C-771.447,481.718 -786.764,477.193 -802.081,472.668C-802.387,473.667 -802.692,474.666 -802.998,475.665C-817.129,467.959 -817.129,467.959 -864.182,475.676C-861.443,500.425 -858.696,525.26 -855.855,550.937C-828.438,563.271 -799.59,558.877 -770.469,557.387C-741.369,523.325 -712.358,489.339 -670.131,474.467C-667.998,462.089 -668.339,450.508 -663.954,441.14C-650.066,411.467 -628.612,389.343 -595.562,380.702C-589.948,379.234 -584.622,376.469 -579.356,373.907C-543.773,356.598 -519.458,329.212 -506.995,296.269C-513.265,282.266 -517.999,271.693 -522.802,260.966C-500.57,249.588 -486.957,266.15 -470.654,270.513C-453.144,252.226 -432.325,240.378 -407.51,236.127C-389.325,233.012 -378.301,241.622 -377.359,256.075C-388.244,262.989 -398.073,268.559 -406.83,275.486C-408.22,276.585 -404.782,283.789 -402.69,291.393C-389.503,282.889 -379.09,276.172 -369.089,269.722C-358.026,280.367 -357.996,290.511 -360.983,301.057C-365.818,318.131 -374.961,332.512 -389.506,342.89C-399.403,349.95 -409.798,356.319 -420.035,362.896C-430.533,369.643 -438.792,377.226 -440.613,391.069C-442.242,403.453 -449.95,412.294 -463.296,414.068C-474.708,407.201 -472.073,397.978 -468.786,388.427C-466.147,380.759 -463.947,372.94 -461.553,365.188C-474.99,380.289 -479.056,381.963 -490.218,375.009C-490.207,349.935 -464.213,323.575 -441.599,327.643C-440.772,333.998 -439.88,340.85 -438.999,347.684C-410.109,350.453 -381.702,326.586 -383.237,296.697C-389.223,303.268 -393.292,307.866 -397.502,312.332C-406.469,321.845 -416.12,320.84 -421.426,309.03C-424.089,303.103 -425.472,296.164 -425.602,289.646C-425.769,281.269 -424.096,272.855 -423.145,263.786C-442.194,272.054 -446.858,290.882 -456.145,304.849C-479.578,312.561 -482.704,291.164 -491.319,280.716C-495.54,293.115 -499.568,305.029 -503.656,316.923C-505.287,321.67 -507.458,326.268 -508.675,331.113C-513.025,348.421 -514.777,366.793 -521.736,382.942C-534.253,411.992 -545.009,443.866 -565.068,467.193C-614.943,525.192 -682.388,559.818 -750.562,592.287C-769.706,601.404 -789.069,610.816 -806.352,622.921C-837.877,644.998 -860.363,674.153 -867.321,713.405C-869.585,726.182 -874.048,738.638 -875.517,751.468C-877.655,770.144 -879.841,789.151 -878.596,807.79C-877.254,827.872 -869.927,846.041 -855.588,862.122C-840.103,879.486 -830.32,902.138 -814.118,918.617C-786.32,946.892 -765.62,979.677 -745.38,1013.06C-729.623,1039.05 -716.898,1066.17 -714.024,1097.16C-712.694,1111.5 -709.329,1125.65 -706.328,1143.13C-672.118,1096.73 -650.682,1049.32 -645.396,995.403C-613.185,986.556 -609.223,1011.89 -600.755,1031.16C-555.736,1013.77 -519.588,985.066 -488.058,950.999C-447.955,907.667 -405.379,867.474 -356.801,833.786C-353.812,831.713 -351.745,828.323 -349.196,825.596C-327.38,802.255 -309.301,775.991 -281.77,757.335C-252.03,737.181 -225.609,711.974 -198.574,688.031C-172.733,665.147 -155.449,636.824 -149.603,602.217C-149.001,598.657 -147.517,595.246 -146.473,591.865C-136.477,591.725 -131.056,597.7 -132.533,605.123C-136.775,626.43 -138.105,650.515 -149.428,667.668C-164.181,690.019 -178.887,714.535 -205.062,728.03C-216.725,734.044 -226.314,744.334 -236.212,753.376C-239.553,756.428 -240.942,761.613 -243.224,765.824C-243.323,765.704 -243.422,765.583 -243.521,765.463C-243.545,765.688 -243.567,765.914 -243.591,766.14M-1016.32,54.729C-1016.13,54.699 -1015.95,54.668 -1015.76,54.638L-1016.55,54.383C-1018.41,49.146 -1019.82,43.695 -1022.21,38.712C-1030.16,22.11 -1036,4.847 -1030.78,-13.398C-1028.12,-22.692 -1022.34,-31.366 -1016.75,-39.48C-1009.96,-49.325 -1001.99,-58.367 -994.331,-67.593C-989.801,-73.053 -984.893,-78.199 -980.154,-83.485C-980.878,-84.948 -981.602,-86.41 -982.325,-87.872C-997.392,-86.406 -1012.46,-84.94 -1027.11,-83.513C-1033.05,-71.952 -1042.24,-61.873 -1042.94,-51.236C-1044.99,-20.009 -1043.67,11.439 -1043.67,40.705C-1033.33,46.01 -1024.82,50.37 -1016.32,54.729M209.436,443.629L208.58,444.193L209.459,443.845C204.257,438.997 198.909,434.295 193.876,429.276C165.237,400.724 135.061,374.439 96.151,360.376C92.485,359.051 89.707,355.31 86.465,352.756C77.881,345.993 69.173,339.532 54.427,342.4C60.302,350.493 64.458,358.271 70.473,364.148C96.979,390.051 130.579,404.494 163.275,420.369C169.12,423.207 174.432,427.166 179.925,430.706C189.073,436.603 196.229,447.007 209.436,443.629M-295.875,-98.584C-294.482,-102.348 -292.004,-105.855 -292.111,-109.282C-292.71,-128.481 -283.044,-143.844 -274.249,-159.581C-264.902,-176.305 -258.044,-193.414 -260.53,-213.412C-261.398,-220.399 -258.632,-227.839 -257.437,-235.646C-235.96,-236.638 -228.328,-222.514 -220.733,-208.188C-216.891,-229.197 -214.354,-249.761 -209.246,-269.664C-196.846,-317.976 -171.297,-358.801 -136.092,-394.002C-128.987,-401.105 -124.326,-410.652 -118.544,-419.077C-115.255,-423.869 -111.978,-428.67 -108.015,-434.461C-103.189,-490.534 -73.063,-535.42 -37.493,-577.801C-15.096,-604.487 6.855,-631.566 28.279,-659.037C33.261,-665.424 35.168,-674.173 38.69,-681.742C42.571,-690.079 46.077,-698.681 50.869,-706.477C55.458,-713.942 62.329,-717.319 73.489,-710.803C69.107,-658.034 64.647,-604.335 60.188,-550.635C61.221,-549.935 62.253,-549.235 63.286,-548.535C69.386,-556.88 75.518,-565.203 81.573,-573.58C85.205,-578.603 88.104,-584.316 92.387,-588.684C119.447,-616.277 146.93,-643.457 173.932,-671.106C178.2,-675.476 180.5,-681.707 184.148,-686.76C187.888,-691.939 192.166,-696.727 196.208,-701.686C197.767,-701.333 199.325,-700.979 200.883,-700.625C201.56,-694.58 203.82,-688.208 202.653,-682.542C195.565,-648.133 187.86,-613.848 179.979,-579.609C177.85,-570.364 174.396,-561.423 173.399,-550.902C182.294,-560.902 191.189,-570.903 200.2,-581.033C211.146,-574.733 212.135,-565.495 209.869,-556.345C194.373,-493.768 182.399,-429.948 147.808,-373.845C147.489,-373.329 147.935,-372.341 148.145,-370.531C202.364,-407.424 256.183,-444.045 310.54,-481.032C317.44,-462.175 314.688,-443.481 306.967,-426.228C291.229,-391.059 273.88,-356.611 257.159,-321.883C255.195,-317.803 253.008,-313.831 249.537,-307.132C295.636,-319.281 334.86,-339.096 368.562,-368.893C371.585,-366.105 372.881,-365.065 373.982,-363.848C375.079,-362.638 375.979,-361.251 377.649,-359.031C361.956,-312.167 336.003,-270.106 310.516,-226.552C336.334,-229.454 360.64,-233.411 385.08,-234.587C409.277,-235.752 432.797,-246.329 457.531,-242.231C458.223,-229.414 452.033,-223.712 443.942,-219.087C404.103,-196.315 364.292,-173.488 324.494,-150.64C306.811,-140.488 289.18,-130.242 271.771,-120.18L456.835,-120.18C460.002,-107.069 452.778,-100.971 444.973,-95.992C390.732,-61.393 334.138,-32.825 268.254,-28.741C267.536,-28.696 266.858,-28.011 263.194,-25.978C270.927,-20.786 277.201,-16.005 283.985,-12.113C317.901,7.342 353.073,23.476 392.258,29.483C396.53,30.138 400.115,35.288 405.253,39.321C376.792,61.344 349.553,79.238 313.375,83.864C352.587,118.226 400.082,140.365 423.415,191.881C415.253,193.275 410.637,195.018 406.186,194.667C379.102,192.533 352.09,189.387 324.986,187.632C301.117,186.086 277.16,185.891 253.24,185.19C251.271,185.132 249.284,185.767 244.328,186.551C248.912,190.185 251.371,192.556 254.208,194.317C275.866,207.766 297.525,221.214 319.354,234.379C324.936,237.745 331.573,239.445 336.913,243.098C342.422,246.866 349.271,251.244 351.297,256.879C353.777,263.78 347.457,267.642 340.176,268.583C314.439,271.913 288.795,276.077 262.992,278.705C249.383,280.09 235.518,278.95 221.648,278.95C221.888,280.35 221.73,281.525 222.206,281.904C237.486,294.056 253.112,305.791 268.077,318.315C282.367,330.275 296.366,342.646 309.728,355.625C316.575,362.276 315.376,370.792 310.188,379.504C307.966,379.504 305.048,380.39 303.158,379.37C279.326,366.518 253.138,372.056 228.019,369.53C199.831,366.697 171.593,364.374 144.704,361.949C144.371,361.579 145.427,363.6 147.086,364.464C171.286,377.074 187.496,398.295 204.849,418.188C222.082,437.947 238.878,458.092 255.669,478.23C263.475,487.592 263.317,492.594 255.98,502.519C229.724,483.565 203.369,464.54 177.014,445.515C179.245,462.174 194.097,480.075 220.889,500.742C239.445,515.056 259.062,527.995 280.006,542.825C276.929,548.13 273.784,553.549 271.931,556.745C220.19,543.416 170.534,530.623 118.701,517.269C123.127,529.04 126.643,539.111 130.673,548.973C143.937,581.431 147.321,615.514 147.312,650.102C147.31,656.303 146.404,662.919 144.031,668.549C142.547,672.07 137.664,676.023 134.068,676.266C130.447,676.511 124.12,673.177 123.127,670.081C114.712,643.846 91.927,632.967 71.166,619.862C67.636,617.634 63.785,615.892 60.013,614.067C44.347,606.49 26.911,601.898 15.938,586.555C14.037,583.895 9.843,582.875 5.819,582.152C26.133,611.535 42.02,644.649 78.759,664.583C79.015,668.951 79.511,677.415 80.021,686.105C47.239,690.829 17.211,686.19 -14.202,677.463C-24.887,703.806 -14.464,731.659 -21.101,759.101C-13.486,759.902 -6.645,760.622 2.001,761.532C4.622,787.375 11.495,812.83 -9.078,835.328C-15.211,842.034 -19.368,850.549 -25.264,859.499C-17.031,862.526 -12.04,864.362 -6.662,866.341C-0.846,876.415 5.564,886.303 10.764,896.79C20.141,915.703 16.008,931.696 -1.075,944.347C-10.142,951.059 -19.619,957.215 -28.65,963.442C-19.782,990.015 -23.506,1002.68 -45.894,1022.38C-101.516,1026.52 -158.668,1007.54 -214.809,1025.91C-216.329,1033.84 -217.664,1040.79 -219.5,1050.36C-225.254,1051.23 -231.835,1053.98 -237.572,1052.77C-254.176,1049.24 -270.443,1044.12 -286.837,1039.6C-292.457,1038.06 -298.061,1036.45 -303.668,1034.86C-311.771,1032.56 -319.873,1030.25 -327.375,1025.7C-389.861,1027.67 -452.347,1029.65 -514.834,1031.58C-530.264,1032.06 -540.614,1040.99 -548.846,1052.63C-562.787,1072.35 -555.62,1092.85 -532.579,1100.2C-527.814,1101.72 -522.865,1102.66 -518.46,1103.76C-512.848,1114.81 -515.143,1121.82 -525.273,1126.14C-543.018,1133.7 -564.062,1128.71 -574.685,1112.63C-581.514,1102.3 -585.891,1090.34 -591.387,1079.07C-633.974,1098.33 -657.115,1176.98 -627.029,1210.06C-620.505,1207.12 -613.384,1203.91 -603.755,1199.58C-611.128,1191.84 -616.182,1186.53 -621.925,1180.51C-621.104,1176.54 -620.105,1171.72 -618.693,1164.9C-609.326,1164.25 -599.968,1163.6 -590.783,1162.95C-577.538,1177.38 -577.694,1193.35 -582.79,1209.56C-588.066,1226.34 -597.794,1240.7 -616.182,1243.89C-636.199,1247.36 -650.781,1235.9 -661.938,1220.71C-675.861,1201.76 -676.839,1180.41 -672.152,1157.31C-678.921,1165.59 -685.883,1173.72 -692.4,1182.2C-698.029,1189.52 -704.142,1196.71 -708.333,1204.85C-730.266,1247.4 -769.336,1268.29 -811.089,1284.24C-836.355,1293.9 -854.265,1289.87 -862.277,1264.6C-858.94,1257.93 -854.918,1249.88 -850.042,1240.12C-835.399,1242.1 -821.88,1244.21 -808.287,1245.62C-802.355,1246.23 -795.663,1246.99 -790.355,1244.97C-748.882,1229.12 -729.509,1196.93 -725.74,1154.21C-724.684,1142.23 -725.579,1130.08 -725.579,1118C-727.022,1117.79 -728.466,1117.58 -729.91,1117.37C-733.296,1125.51 -736.502,1133.73 -740.11,1141.78C-745.417,1153.61 -750.003,1165.94 -756.817,1176.86C-761.763,1184.78 -769.397,1191.26 -776.615,1197.47C-782.796,1202.78 -790.28,1204.55 -796.945,1197.72C-803.567,1190.93 -806.805,1182.88 -802.461,1173.68C-800.723,1169.99 -798.053,1166.29 -794.856,1163.83C-777.693,1150.63 -764.433,1133.69 -760.285,1113.06C-757.005,1096.74 -758.158,1078.59 -761.444,1062.08C-770.495,1016.57 -796.609,980.27 -830.269,947.648C-829.86,952.184 -829.292,956.712 -829.073,961.256C-828.228,978.769 -825.717,996.444 -827.23,1013.76C-828.69,1030.47 -825.768,1045.02 -818.55,1059.79C-801.709,1094.27 -800.898,1130.4 -811.909,1166.45C-820.708,1195.26 -841.448,1210.38 -869.01,1211.3C-883.888,1199.74 -883.311,1184.31 -864.378,1174.84C-840.748,1163.03 -835.96,1142.28 -832.668,1120.26C-831.499,1112.43 -834.403,1104 -835.769,1093.35C-843.842,1100.04 -848.959,1106.15 -855.505,1109.24C-864.235,1113.36 -874.089,1117.17 -883.436,1117.11C-888.64,1117.08 -896.163,1109.81 -898.241,1104.17C-899.981,1099.45 -896.856,1091.13 -893.159,1086.65C-887.951,1080.34 -880.043,1076.32 -873.627,1070.93C-867.325,1065.63 -861.443,1059.83 -853.867,1052.86C-863.96,1037.93 -872.851,1023.83 -882.684,1010.43C-900.765,985.784 -923.004,963.604 -932.289,933.662C-936.918,918.731 -939.687,902.603 -939.692,887.017C-939.699,867.266 -943.761,849.94 -951.694,831.545C-965.014,800.66 -963.01,768.026 -949.06,736.863C-944.629,726.966 -939.518,717.373 -934.717,707.641C-935.378,706.587 -936.04,705.532 -936.7,704.478C-946.608,708.883 -956.914,712.574 -966.344,717.836C-987.549,729.668 -1008.03,742.806 -1029.36,754.4C-1045.54,763.195 -1062.08,762.422 -1076.12,749.568C-1090.06,736.801 -1093.64,720.473 -1088.8,702.357C-1084.26,685.36 -1072.99,676.26 -1055.17,674.657C-1049.04,679.8 -1049.8,685.518 -1054.73,690.722C-1061.75,698.136 -1068.56,706.77 -1061.85,716.067C-1057.71,721.807 -1048.55,725.85 -1041.13,726.851C-1029.5,728.421 -1021.63,721.107 -1017.57,710.207C-1027.38,683.688 -1037.67,657.594 -1046.71,631.075C-1070.43,561.554 -1079.88,489.875 -1075.72,416.652C-1074.81,400.589 -1070.01,384.453 -1065.07,368.966C-1049.64,320.584 -1053.13,272.229 -1063.03,223.596C-1064.75,215.098 -1064.58,206.226 -1066.1,197.669C-1067.6,189.173 -1069.53,180.653 -1072.35,172.518C-1074.94,165.045 -1079.12,158.136 -1082.32,150.851C-1083.8,147.469 -1084.59,143.786 -1086.29,138.331C-1078.53,131.904 -1070.47,125.219 -1061.39,117.686C-1066.46,109.107 -1070.64,102.048 -1073.66,96.935L-1073.66,-104.516C-1068.02,-108.883 -1062.13,-113.444 -1057.43,-117.077C-1044.02,-114.755 -1032.17,-111.76 -1020.17,-110.853C-1003.37,-109.585 -988.026,-113.916 -974.706,-125.334C-958.343,-139.359 -955.715,-139.128 -937.017,-128.057C-933.047,-125.706 -929.197,-122 -924.984,-121.496C-919.437,-120.832 -912.11,-120.782 -908.113,-123.83C-887.717,-139.387 -888.006,-139.767 -871.219,-123.711C-834.173,-123.711 -799.4,-123.523 -764.63,-123.751C-699.999,-124.175 -635.371,-124.959 -570.74,-125.349C-545.172,-125.503 -519.571,-124.139 -494.035,-124.981C-435.031,-126.926 -378.16,-114.054 -321.144,-101.763C-314.594,-100.351 -307.976,-99.24 -301.369,-98.109C-300.19,-97.908 -298.911,-98.297 -295.875,-98.584" style="fill-rule:nonzero;"/>
        </g>
        <g transform="matrix(1,0,0,1,522.028,427.998)">
            <path d="M0,11.109C24.408,2.367 45.645,-7.869 61.786,-26.515C70.381,-36.444 74.482,-48.012 73.404,-61.281C72.064,-77.776 63.637,-86.42 46.927,-87.148C26.693,-88.03 12.42,-76.875 0,-63.741L0,11.109ZM31.725,15.18C20.903,18.639 10.622,21.924 -0.831,25.585C3.417,50.509 -9.564,77.754 13.066,101.644L-44.226,101.644C-27.617,87.002 -32.397,68.749 -32.212,51.658C-31.849,18.048 -31.666,-15.577 -32.334,-49.178C-32.581,-61.559 -35.441,-73.889 -37.084,-86.057C-27.176,-91.879 -14.992,-99.039 -1.635,-106.888C-0.968,-101.85 -0.103,-95.313 1.002,-86.972C21.601,-104.797 44.406,-114.481 70.769,-105.973C79.438,-103.175 88.728,-97.47 94.163,-90.363C112.559,-66.307 104.132,-41.297 66.642,-4.721C78.921,37.575 93.098,80.025 95.999,125.59C70.181,91.328 53.342,51.953 31.725,15.18" style="fill-rule:nonzero;"/>
        </g>
        <g transform="matrix(1,0,0,1,1025.76,127.31)">
            <path d="M0,47.3C-9.741,16.571 -19.219,-13.325 -28.696,-43.221C-29.689,-43.074 -30.682,-42.927 -31.675,-42.779C-40.676,-13.039 -49.677,16.701 -58.938,47.3L0,47.3ZM-44.461,-66.976C-58.39,-61.751 -72.318,-56.526 -89.988,-49.896C-86.265,-63.114 -83.167,-74.11 -79.961,-85.492L35.715,-85.492C39.044,-74.916 42.549,-63.782 46.801,-50.278C29.347,-56.675 14.863,-61.982 -2.58,-68.374C7.937,-33.712 17.247,-2.939 26.613,27.817C31.866,45.067 36.678,62.476 42.659,79.472C48.947,97.342 56.395,114.804 63.472,132.792L7.169,132.792C11.451,127.654 14.232,124.318 17.014,120.981C17.979,120.772 18.943,120.563 19.908,120.353C15.874,103.936 11.841,87.519 7.655,70.485L-66.723,70.485C-71.029,84.152 -76.607,97.452 -78.962,111.3C-80.042,117.652 -74.789,125.081 -72.169,132.715L-110.253,132.715C-110.504,131.657 -111.119,130.483 -110.814,130.149C-91.189,108.685 -88.57,80.162 -79.795,54.328C-66.47,15.099 -54.524,-24.599 -41.992,-64.097C-42.815,-65.057 -43.638,-66.016 -44.461,-66.976" style="fill-rule:nonzero;"/>
        </g>
        <g transform="matrix(1,0,0,1,198.764,460.929)">
            <path d="M0,-26.497C0,-3.1 -0.814,20.044 0.425,43.077C0.882,51.569 6.182,59.802 9.593,69.02L-44.75,69.02C-26.203,52.444 -32.198,31.911 -31.925,12.856C-31.348,-27.48 -31.749,-67.831 -31.749,-108.176L-31.749,-122.543C-35.779,-126.939 -39.003,-130.456 -43.979,-135.885L71.27,-135.885C73.948,-125.884 76.956,-114.654 79.963,-103.423C79.009,-102.568 78.055,-101.713 77.101,-100.858C53.686,-115.914 28.324,-120.331 0.732,-117.08L0.732,-51.571C4.31,-54.114 7.207,-56.115 10.043,-58.198C32.111,-74.405 60.716,-72.223 80.023,-52.626C95.238,-37.183 103.369,-18.01 102.406,3.191C100.507,44.954 82.813,79.108 47.666,102.99C42.956,106.19 36.832,107.306 31.362,109.388C30.574,108.188 29.785,106.989 28.997,105.789C32.224,101.735 35.367,97.612 38.69,93.639C64.679,62.57 75.337,27.104 68.907,-13.063C66.73,-26.662 62.932,-40.215 47.583,-44.403C31.344,-48.834 16.961,-43.795 4.891,-32.205C3.387,-30.761 2.156,-29.033 0,-26.497" style="fill-rule:nonzero;"/>
        </g>
        <g transform="matrix(1,0,0,1,692.621,61.8141)">
            <path d="M0,178.327C5.803,173.741 11.402,170.095 16.068,165.502C52.183,129.953 60.747,58.948 34.281,15.821C25.437,1.409 13.745,-8.567 -4.356,-7.819C-22.888,-7.053 -34.898,3.645 -41.695,19.605C-46.396,30.643 -49.768,42.635 -51.413,54.521C-58.406,105.074 -39.175,145.083 0,178.327M-12.714,208.126C-51.433,180.942 -79.438,146.832 -85.112,98.431C-88.64,68.343 -84.369,38.926 -70.176,11.58C-57.003,-13.801 -37.216,-29.799 -7.575,-29.761C22.002,-29.724 42.251,-14.024 55.094,11.519C87.55,76.068 68.987,164.245 -1.371,203.053C-4.604,204.836 -8.128,206.094 -12.714,208.126" style="fill-rule:nonzero;"/>
        </g>
        <g transform="matrix(1,0,0,1,831.671,96.2327)">
            <path d="M0,132.632C7.697,110.174 15.601,89.084 22.126,67.574C30.151,41.123 37.925,14.528 44.101,-12.395C48.68,-32.355 35.876,-43.881 15.639,-40.044C-1.277,-36.837 -9.782,-24.461 -15.176,-9.809C-26.273,20.333 -28.667,51.647 -24.167,83.228C-21.595,101.274 -14.237,117.749 0,132.632M81.655,112.085C89.04,137.239 56.452,165.525 12.299,170.466C14.098,179.176 15.883,187.824 17.669,196.472C16.521,196.987 15.375,197.503 14.227,198.019C1.611,191.455 2.479,176.729 -2.374,165.465C-64.318,121.632 -78.542,28.024 -32.575,-33.223C-13.394,-58.782 12.224,-65.387 42.024,-55.063C54.439,-50.762 68.416,-50.97 83.568,-48.866C47.827,8.46 35.717,76.181 13.144,141.621C27.206,147.088 41.203,147.589 53.01,139.412C63.798,131.94 72.322,121.2 81.655,112.085" style="fill-rule:nonzero;"/>
        </g>
        <g transform="matrix(1,0,0,1,1039.1,430.519)">
            <path d="M0,10.437C-8.317,34.604 -19.788,56.979 -21.076,82.208C-0.865,88.863 20.136,80.224 27.562,63.131C35.685,44.433 26.604,26.327 0,10.437M-1.155,-25.596C3.097,-40.595 8.675,-54.758 10.607,-69.401C11.582,-76.785 8.332,-88.289 2.862,-92.302C-14.463,-105.013 -43.585,-88.66 -44.29,-67.189C-44.889,-48.954 -27.69,-31.558 -1.155,-25.596M49.988,-101.693C37.191,-76.385 23.33,-48.972 8.93,-20.493C45.073,-0.679 61.894,26.773 49.949,65.89C42.273,91.029 21.234,101.412 -21.312,103.333C-19.998,111.273 -18.702,119.104 -17.405,126.935L-20.947,128.445C-31.068,122.054 -30.991,109.654 -35.617,97.843C-41.89,95.143 -49.397,91.911 -57.442,88.448C-60.089,92.196 -62.045,94.965 -66.369,101.085C-72.172,78.108 -77.178,58.289 -82.184,38.469C-81.213,37.89 -80.242,37.311 -79.271,36.732C-65.98,50.966 -52.689,65.2 -38.061,80.867C-29.2,52.733 -21.469,28.184 -13.66,3.387C-23.724,-1.896 -34.456,-6.663 -44.279,-12.868C-63.428,-24.964 -74.039,-42.469 -72.474,-65.558C-70.289,-97.777 -38.751,-118.008 -2.911,-111.11C14.874,-107.688 32.753,-104.746 49.988,-101.693" style="fill-rule:nonzero;"/>
        </g>
        <g transform="matrix(1,0,0,1,457.237,529.639)">
            <path d="M0,-205.896L0,-140.937C-0.91,-140.498 -1.819,-140.058 -2.729,-139.619C-4.72,-142.978 -6.539,-146.454 -8.736,-149.672C-15.967,-160.262 -21.668,-172.645 -31.001,-180.893C-49.678,-197.397 -73.858,-193.172 -85.153,-171.039C-93.751,-154.192 -98.2,-135.227 -105.303,-114.892L-67.894,-114.892C-63.036,-120.229 -58.136,-125.613 -50.921,-133.542L-50.921,-77.642C-51.567,-76.74 -52.213,-75.837 -52.859,-74.936C-64.511,-94.118 -80.565,-100.267 -101.542,-94.352C-100.978,-73.31 -97.037,-53.355 -86.852,-35.108C-72.814,-9.96 -44.498,-6.337 -24.92,-27.692C-18.295,-34.918 -14.372,-44.636 -9.298,-53.264C-7.401,-56.49 -5.742,-59.856 -3.974,-63.158C-2.885,-62.85 -1.795,-62.542 -0.706,-62.234L-0.706,-0.784C-26.413,-0.784 -52.299,0.525 -77.967,-1.279C-93.168,-2.348 -104.115,-13.824 -113.151,-25.924C-145.206,-68.847 -145.378,-135.187 -113.545,-178.416C-100.229,-196.5 -82.831,-206.421 -59.834,-205.975C-40.208,-205.594 -20.567,-205.896 0,-205.896" style="fill-rule:nonzero;"/>
        </g>
        <g transform="matrix(1,0,0,1,933.961,530.535)">
            <path d="M0,-206.792L0,-141.661C-0.989,-141.285 -1.978,-140.91 -2.967,-140.534C-4.885,-144.004 -6.514,-147.676 -8.772,-150.908C-16.351,-161.749 -22.454,-174.434 -32.238,-182.742C-50.298,-198.075 -72.343,-193.044 -84.98,-172.874C-95.699,-155.765 -99.923,-136.656 -101.526,-115.649L-67.859,-115.649C-62.77,-121.287 -57.949,-126.627 -50.909,-134.426L-50.909,-78.318L-53.114,-75.779C-64.148,-95.187 -80.184,-100.776 -101.561,-95.202C-100.177,-70.196 -96.456,-45.607 -79.106,-25.623C-66.467,-11.064 -43.715,-10.729 -28.309,-25.467C-20.683,-32.762 -15.861,-43.056 -10.1,-52.201C-7.836,-55.793 -6.472,-59.953 -2.599,-63.496C2.214,-42.6 0.503,-21.909 0.393,-0.744C-25.393,-0.744 -50.118,0.601 -74.61,-1.204C-91.73,-2.465 -104.148,-14.34 -114.059,-28.119C-144.98,-71.106 -144.963,-135.732 -114.002,-178.588C-100.562,-197.192 -82.917,-207.393 -59.4,-206.878C-40.103,-206.456 -20.79,-206.792 0,-206.792" style="fill-rule:nonzero;"/>
        </g>
        <g transform="matrix(1,0,0,1,720.715,332.782)">
            <path d="M0,178.23C5.641,173.46 11.56,169.385 16.348,164.255C47.555,130.823 55.187,70.312 33.561,29.891C25.136,14.145 13.811,2.574 -5.777,3.71C-25.246,4.838 -35.659,17.515 -42.349,33.904C-62.888,84.217 -45.588,144.571 0,178.23M-13.59,206.064C-53.601,177.589 -81.37,141.005 -81.754,88.33C-81.95,61.457 -76.597,35.76 -61.535,12.896C-35.284,-26.955 18.433,-27.834 44.863,11.883C83.398,69.789 69.502,166.959 -7.945,204.761C-9.035,205.293 -10.363,205.339 -13.59,206.064" style="fill-rule:nonzero;"/>
        </g>
        <g transform="matrix(1,0,0,1,463.751,260.154)">
            <path d="M0,-218.638L88.607,-218.638L88.607,-176.017C74.161,-185.613 60.951,-194.386 45.4,-204.715L45.4,-17.34C80.799,-13.852 104.808,-34.2 128.356,-55.608C129.377,-54.894 130.399,-54.18 131.42,-53.466C126.248,-35.789 121.075,-18.112 115.775,0L0.573,0C4.23,-4.859 6.741,-8.195 9.886,-12.374L9.886,-205.497C7.687,-208.419 4.775,-212.291 0,-218.638" style="fill-rule:nonzero;"/>
        </g>
        <g transform="matrix(1,0,0,1,1152.6,58.781)">
            <path d="M0,184.262C35.182,187.006 59.28,167.655 82.304,145.9L86.007,147.993C80.729,165.806 75.45,183.618 70.228,201.24L-45.163,201.24C-41.138,196.082 -38.514,192.72 -35.561,188.937L-35.561,-4.254C-38.508,-8.175 -41.145,-11.684 -45.122,-16.978L43.305,-16.978L43.305,25.549C28.93,15.947 15.773,7.16 0,-3.376L0,184.262Z" style="fill-rule:nonzero;"/>
        </g>
        <g transform="matrix(1,0,0,1,618.354,1522.28)">
            <path d="M0,-163.459C4.828,-157.962 9.224,-152.956 15.359,-145.972C9.158,-139.744 3.161,-133.72 -2.836,-127.696C-21.523,-93.27 -29.554,-39.036 4.631,-17.11C4.394,-13.824 4.129,-10.163 3.759,-5.043C-20.919,0 -41.788,-7.003 -60.262,-22.441C-87.095,-44.866 -92.114,-83.048 -73.885,-114.278C-60.186,-137.746 -44.872,-154.43 -18.531,-160.328C-12.834,-161.604 -7.006,-162.293 0,-163.459" style="fill-rule:nonzero;"/>
        </g>
        <g transform="matrix(1,0,0,1,688.088,1089.48)">
            <path d="M0,-80.504C4.835,-79.545 9.466,-79.133 13.746,-77.682C25.314,-73.76 36.445,-73.44 48.094,-78.089C55.364,-80.991 63.613,-82.702 70.794,-74.063C65.254,-58.289 52.393,-48.338 39.725,-38.652C29.214,-30.617 17.5,-24.175 6.642,-16.567C-0.806,-11.351 -7.701,-5.348 -17.235,2.198C-19.577,-4.637 -23.15,-9.498 -22.18,-13.153C-16.537,-34.431 -9.848,-55.432 -3.415,-76.495C-3.084,-77.578 -1.848,-78.384 0,-80.504" style="fill-rule:nonzero;"/>
        </g>
    </g>
</svg>
